{
  "accessors": [
    {
      "name": "Box447_1_0_positions",
      "componentType": 5126,
      "count": 4,
      "min": [
        -0.22579999268054962,
        -0.6941999793052673,
        -0.1412999927997589
      ],
      "max": [
        0.22579999268054962,
        0.6978999972343445,
        -0.1412999927997589
      ],
      "type": "VEC3",
      "bufferView": 0,
      "byteOffset": 0
    },
    {
      "name": "Box447_1_0_normals",
      "componentType": 5126,
      "count": 4,
      "min": [
        0,
        0,
        1
      ],
      "max": [
        0,
        0,
        1
      ],
      "type": "VEC3",
      "bufferView": 1,
      "byteOffset": 0
    },
    {
      "name": "Box447_1_0_texcoords",
      "componentType": 5126,
      "count": 4,
      "min": [
        0.6640999913215637,
        0
      ],
      "max": [
        0.9883999824523926,
        1
      ],
      "type": "VEC2",
      "bufferView": 2,
      "byteOffset": 0
    },
    {
      "name": "Box447_1_0_indices",
      "componentType": 5123,
      "count": 6,
      "min": [
        0
      ],
      "max": [
        3
      ],
      "type": "SCALAR",
      "bufferView": 3,
      "byteOffset": 0
    },
    {
      "name": "Box447_1_1_positions",
      "componentType": 5126,
      "count": 104,
      "min": [
        -0.31220000982284546,
        -0.7562000155448914,
        -0.17219999432563782
      ],
      "max": [
        0.31220000982284546,
        0.7562000155448914,
        -0.1412999927997589
      ],
      "type": "VEC3",
      "bufferView": 0,
      "byteOffset": 48
    },
    {
      "name": "Box447_1_1_normals",
      "componentType": 5126,
      "count": 104,
      "min": [
        -1,
        -1,
        -1
      ],
      "max": [
        1,
        1,
        1
      ],
      "type": "VEC3",
      "bufferView": 1,
      "byteOffset": 48
    },
    {
      "name": "Box447_1_1_texcoords",
      "componentType": 5126,
      "count": 104,
      "min": [
        0.3395000100135803,
        0.002300000051036477
      ],
      "max": [
        0.6604999899864197,
        0.995199978351593
      ],
      "type": "VEC2",
      "bufferView": 2,
      "byteOffset": 32
    },
    {
      "name": "Box447_1_1_indices",
      "componentType": 5123,
      "count": 222,
      "min": [
        0
      ],
      "max": [
        103
      ],
      "type": "SCALAR",
      "bufferView": 3,
      "byteOffset": 12
    },
    {
      "name": "Tube200_1_0_positions",
      "componentType": 5126,
      "count": 114,
      "min": [
        -0.20029999315738678,
        0.2590000033378601,
        -0.1492999941110611
      ],
      "max": [
        0.2053000032901764,
        0.6708999872207642,
        0.22779999673366547
      ],
      "type": "VEC3",
      "bufferView": 0,
      "byteOffset": 1296
    },
    {
      "name": "Tube200_1_0_normals",
      "componentType": 5126,
      "count": 114,
      "min": [
        -0.9932370185852051,
        -1,
        0
      ],
      "max": [
        0.9932370185852051,
        1,
        0.9999980330467224
      ],
      "type": "VEC3",
      "bufferView": 1,
      "byteOffset": 1296
    },
    {
      "name": "Tube200_1_0_texcoords",
      "componentType": 5126,
      "count": 114,
      "min": [
        0.048700001090765,
        0.065700002014637
      ],
      "max": [
        0.3027999997138977,
        0.40450000762939453
      ],
      "type": "VEC2",
      "bufferView": 2,
      "byteOffset": 864
    },
    {
      "name": "Tube200_1_0_indices",
      "componentType": 5123,
      "count": 324,
      "min": [
        0
      ],
      "max": [
        113
      ],
      "type": "SCALAR",
      "bufferView": 3,
      "byteOffset": 456
    },
    {
      "name": "Tube201_1_0_positions",
      "componentType": 5126,
      "count": 114,
      "min": [
        -0.20029999315738678,
        -0.6796000003814697,
        -0.1492999941110611
      ],
      "max": [
        0.2053000032901764,
        -0.2678000032901764,
        0.22779999673366547
      ],
      "type": "VEC3",
      "bufferView": 0,
      "byteOffset": 2664
    },
    {
      "name": "Tube201_1_0_normals",
      "componentType": 5126,
      "count": 114,
      "min": [
        -0.9932370185852051,
        -1,
        0
      ],
      "max": [
        0.9932370185852051,
        1,
        0.9999980330467224
      ],
      "type": "VEC3",
      "bufferView": 1,
      "byteOffset": 2664
    },
    {
      "name": "Tube201_1_0_texcoords",
      "componentType": 5126,
      "count": 114,
      "min": [
        0.048700001090765,
        0.065700002014637
      ],
      "max": [
        0.3027999997138977,
        0.40450000762939453
      ],
      "type": "VEC2",
      "bufferView": 2,
      "byteOffset": 1776
    },
    {
      "name": "Tube201_1_0_indices",
      "componentType": 5123,
      "count": 324,
      "min": [
        0
      ],
      "max": [
        113
      ],
      "type": "SCALAR",
      "bufferView": 3,
      "byteOffset": 1104
    },
    {
      "name": "Tube199_1_0_positions",
      "componentType": 5126,
      "count": 114,
      "min": [
        -0.20029999315738678,
        -0.20520000159740448,
        -0.1492999941110611
      ],
      "max": [
        0.2053000032901764,
        0.20669999718666077,
        0.22779999673366547
      ],
      "type": "VEC3",
      "bufferView": 0,
      "byteOffset": 4032
    },
    {
      "name": "Tube199_1_0_normals",
      "componentType": 5126,
      "count": 114,
      "min": [
        -0.9932370185852051,
        -1,
        0
      ],
      "max": [
        0.9932370185852051,
        1,
        0.9999980330467224
      ],
      "type": "VEC3",
      "bufferView": 1,
      "byteOffset": 4032
    },
    {
      "name": "Tube199_1_0_texcoords",
      "componentType": 5126,
      "count": 114,
      "min": [
        0.048700001090765,
        0.065700002014637
      ],
      "max": [
        0.3027999997138977,
        0.40450000762939453
      ],
      "type": "VEC2",
      "bufferView": 2,
      "byteOffset": 2688
    },
    {
      "name": "Tube199_1_0_indices",
      "componentType": 5123,
      "count": 324,
      "min": [
        0
      ],
      "max": [
        113
      ],
      "type": "SCALAR",
      "bufferView": 3,
      "byteOffset": 1752
    }
  ],
  "asset": {
    "generator": "obj2gltf",
    "version": "2.0"
  },
  "buffers": [
    {
      "name": "hld",
      "byteLength": 296396,
      "uri": "data:application/octet-stream;base64,"
    }
  ],
  "bufferViews": [
    {
      "name": "bufferView_0",
      "buffer": 0,
      "byteLength": 5400,
      "byteOffset": 0,
      "byteStride": 12,
      "target": 34962
    },
    {
      "name": "bufferView_1",
      "buffer": 0,
      "byteLength": 5400,
      "byteOffset": 5400,
      "byteStride": 12,
      "target": 34962
    },
    {
      "name": "bufferView_2",
      "buffer": 0,
      "byteLength": 3600,
      "byteOffset": 10800,
      "byteStride": 8,
      "target": 34962
    },
    {
      "name": "bufferView_3",
      "buffer": 0,
      "byteLength": 2400,
      "byteOffset": 14400,
      "target": 34963
    },
    {
      "buffer": 0,
      "byteOffset": 16800,
      "byteLength": 242875
    },
    {
      "buffer": 0,
      "byteOffset": 259675,
      "byteLength": 36718
    }
  ],
  "images": [
    {
      "name": "XiangYang_WWH_TT_27",
      "mimeType": "image/jpeg",
      "bufferView": 4
    },
    {
      "name": "Honglvdeng006",
      "mimeType": "image/jpeg",
      "bufferView": 5
    }
  ],
  "materials": [
    {
      "name": "Material__2143341489",
      "pbrMetallicRoughness": {
        "baseColorTexture": {
          "index": 0
        },
        "baseColorFactor": [
          1,
          1,
          1,
          1
        ],
        "metallicFactor": 0,
        "roughnessFactor": 0.99
      },
      "emissiveFactor": [
        0,
        0,
        0
      ],
      "alphaMode": "OPAQUE",
      "doubleSided": false
    },
    {
      "name": "Material__2143341501",
      "pbrMetallicRoughness": {
        "baseColorTexture": {
          "index": 1
        },
        "baseColorFactor": [
          1,
          1,
          1,
          1
        ],
        "metallicFactor": 0,
        "roughnessFactor": 0.99
      },
      "emissiveFactor": [
        0,
        0,
        0
      ],
      "alphaMode": "OPAQUE",
      "doubleSided": false
    }
  ],
  "meshes": [
    {
      "name": "Box447_1",
      "primitives": [
        {
          "attributes": {
            "POSITION": 0,
            "NORMAL": 1,
            "TEXCOORD_0": 2
          },
          "indices": 3,
          "material": 0,
          "mode": 4
        },
        {
          "attributes": {
            "POSITION": 4,
            "NORMAL": 5,
            "TEXCOORD_0": 6
          },
          "indices": 7,
          "material": 1,
          "mode": 4
        }
      ]
    },
    {
      "name": "Tube200_1",
      "primitives": [
        {
          "attributes": {
            "POSITION": 8,
            "NORMAL": 9,
            "TEXCOORD_0": 10
          },
          "indices": 11,
          "material": 1,
          "mode": 4
        }
      ]
    },
    {
      "name": "Tube201_1",
      "primitives": [
        {
          "attributes": {
            "POSITION": 12,
            "NORMAL": 13,
            "TEXCOORD_0": 14
          },
          "indices": 15,
          "material": 1,
          "mode": 4
        }
      ]
    },
    {
      "name": "Tube199_1",
      "primitives": [
        {
          "attributes": {
            "POSITION": 16,
            "NORMAL": 17,
            "TEXCOORD_0": 18
          },
          "indices": 19,
          "material": 1,
          "mode": 4
        }
      ]
    }
  ],
  "nodes": [
    {
      "name": "Box447",
      "mesh": 0
    },
    {
      "name": "Tube200",
      "mesh": 1
    },
    {
      "name": "Tube201",
      "mesh": 2
    },
    {
      "name": "Tube199",
      "mesh": 3
    }
  ],
  "samplers": [
    {
      "magFilter": 9729,
      "minFilter": 9986,
      "wrapS": 10497,
      "wrapT": 10497
    }
  ],
  "scene": 0,
  "scenes": [
    {
      "nodes": [
        0,
        1,
        2,
        3
      ]
    }
  ],
  "textures": [
    {
      "name": "XiangYang_WWH_TT_27",
      "sampler": 0,
      "source": 0
    },
    {
      "name": "Honglvdeng006",
      "sampler": 0,
      "source": 1
    }
  ]
}
