{
  "accessors": [
    {
      "name": "Line1089_1_0_positions",
      "componentType": 5126,
      "count": 104,
      "min": [
        -0.3709000051021576,
        -0.35569998621940613,
        -0.357699990272522
      ],
      "max": [
        -0.020400000736117363,
        0.35569998621940613,
        0.357699990272522
      ],
      "type": "VEC3",
      "bufferView": 0,
      "byteOffset": 0
    },
    {
      "name": "Line1089_1_0_normals",
      "componentType": 5126,
      "count": 104,
      "min": [
        -0.9999998807907104,
        -1,
        -1
      ],
      "max": [
        1,
        1,
        1
      ],
      "type": "VEC3",
      "bufferView": 1,
      "byteOffset": 0
    },
    {
      "name": "Line1089_1_0_texcoords",
      "componentType": 5126,
      "count": 104,
      "min": [
        0.009999999776482582,
        0.015399999916553497
      ],
      "max": [
        0.9900000095367432,
        0.9900000095367432
      ],
      "type": "VEC2",
      "bufferView": 2,
      "byteOffset": 0
    },
    {
      "name": "Line1089_1_0_indices",
      "componentType": 5123,
      "count": 186,
      "min": [
        0
      ],
      "max": [
        103
      ],
      "type": "SCALAR",
      "bufferView": 3,
      "byteOffset": 0
    },
    {
      "name": "Line1089_1_1_positions",
      "componentType": 5126,
      "count": 28,
      "min": [
        -0.2206999957561493,
        -0.24330000579357147,
        -0.23479999601840973
      ],
      "max": [
        -0.2206999957561493,
        0.22830000519752502,
        0.23680000007152557
      ],
      "type": "VEC3",
      "bufferView": 0,
      "byteOffset": 1248
    },
    {
      "name": "Line1089_1_1_normals",
      "componentType": 5126,
      "count": 28,
      "min": [
        -1,
        0,
        0
      ],
      "max": [
        -1,
        0,
        0
      ],
      "type": "VEC3",
      "bufferView": 1,
      "byteOffset": 1248
    },
    {
      "name": "Line1089_1_1_texcoords",
      "componentType": 5126,
      "count": 28,
      "min": [
        0.013700000010430813,
        0.013700000010430813
      ],
      "max": [
        0.986299991607666,
        0.986299991607666
      ],
      "type": "VEC2",
      "bufferView": 2,
      "byteOffset": 832
    },
    {
      "name": "Line1089_1_1_indices",
      "componentType": 5123,
      "count": 78,
      "min": [
        0
      ],
      "max": [
        27
      ],
      "type": "SCALAR",
      "bufferView": 3,
      "byteOffset": 372
    },
    {
      "name": "Line1089_1_2_positions",
      "componentType": 5126,
      "count": 4,
      "min": [
        -0.21660000085830688,
        -0.2671999931335449,
        -0.2777000069618225
      ],
      "max": [
        -0.21629999577999115,
        0.2667999863624573,
        0.27790001034736633
      ],
      "type": "VEC3",
      "bufferView": 0,
      "byteOffset": 1584
    },
    {
      "name": "Line1089_1_2_normals",
      "componentType": 5126,
      "count": 4,
      "min": [
        -0.9999998807907104,
        0,
        0.0004999999655410647
      ],
      "max": [
        -0.9999998807907104,
        0,
        0.0004999999655410647
      ],
      "type": "VEC3",
      "bufferView": 1,
      "byteOffset": 1584
    },
    {
      "name": "Line1089_1_2_texcoords",
      "componentType": 5126,
      "count": 4,
      "min": [
        0.6101999878883362,
        0
      ],
      "max": [
        1.0019999742507935,
        0.3303999900817871
      ],
      "type": "VEC2",
      "bufferView": 2,
      "byteOffset": 1056
    },
    {
      "name": "Line1089_1_2_indices",
      "componentType": 5123,
      "count": 6,
      "min": [
        0
      ],
      "max": [
        3
      ],
      "type": "SCALAR",
      "bufferView": 3,
      "byteOffset": 528
    }
  ],
  "asset": {
    "generator": "obj2gltf",
    "version": "2.0"
  },
  "buffers": [
    {
      "name": "hld0516",
      "byteLength": 251920,
      "uri": "data:application/octet-stream;base64,"
    }
  ],
  "bufferViews": [
    {
      "name": "bufferView_0",
      "buffer": 0,
      "byteLength": 1632,
      "byteOffset": 0,
      "byteStride": 12,
      "target": 34962
    },
    {
      "name": "bufferView_1",
      "buffer": 0,
      "byteLength": 1632,
      "byteOffset": 1632,
      "byteStride": 12,
      "target": 34962
    },
    {
      "name": "bufferView_2",
      "buffer": 0,
      "byteLength": 1088,
      "byteOffset": 3264,
      "byteStride": 8,
      "target": 34962
    },
    {
      "name": "bufferView_3",
      "buffer": 0,
      "byteLength": 540,
      "byteOffset": 4352,
      "target": 34963
    },
    {
      "buffer": 0,
      "byteOffset": 4892,
      "byteLength": 24209
    },
    {
      "buffer": 0,
      "byteOffset": 29101,
      "byteLength": 141028
    },
    {
      "buffer": 0,
      "byteOffset": 170129,
      "byteLength": 81789
    }
  ],
  "images": [
    {
      "name": "honglvdeng_Black1113_001",
      "mimeType": "image/jpeg",
      "bufferView": 4
    },
    {
      "name": "4",
      "mimeType": "image/jpeg",
      "bufferView": 5
    },
    {
      "name": "honglvdeng1113_002",
      "mimeType": "image/jpeg",
      "bufferView": 6
    }
  ],
  "materials": [
    {
      "name": "Standardmaterial_21",
      "pbrMetallicRoughness": {
        "baseColorTexture": {
          "index": 0
        },
        "baseColorFactor": [
          1,
          1,
          1,
          1
        ],
        "metallicFactor": 0,
        "roughnessFactor": 0.99
      },
      "emissiveFactor": [
        0,
        0,
        0
      ],
      "alphaMode": "OPAQUE",
      "doubleSided": false
    },
    {
      "name": "Standardmaterial_10",
      "pbrMetallicRoughness": {
        "baseColorTexture": {
          "index": 1
        },
        "baseColorFactor": [
          1,
          1,
          1,
          1
        ],
        "metallicFactor": 0,
        "roughnessFactor": 0.99
      },
      "emissiveFactor": [
        0,
        0,
        0
      ],
      "alphaMode": "OPAQUE",
      "doubleSided": false
    },
    {
      "name": "Standardmaterial_20",
      "pbrMetallicRoughness": {
        "baseColorTexture": {
          "index": 2
        },
        "baseColorFactor": [
          1,
          1,
          1,
          1
        ],
        "metallicFactor": 0,
        "roughnessFactor": 0.99
      },
      "emissiveFactor": [
        0,
        0,
        0
      ],
      "alphaMode": "OPAQUE",
      "doubleSided": false
    }
  ],
  "meshes": [
    {
      "name": "Line1089_1",
      "primitives": [
        {
          "attributes": {
            "POSITION": 0,
            "NORMAL": 1,
            "TEXCOORD_0": 2
          },
          "indices": 3,
          "material": 0,
          "mode": 4
        },
        {
          "attributes": {
            "POSITION": 4,
            "NORMAL": 5,
            "TEXCOORD_0": 6
          },
          "indices": 7,
          "material": 1,
          "mode": 4
        },
        {
          "attributes": {
            "POSITION": 8,
            "NORMAL": 9,
            "TEXCOORD_0": 10
          },
          "indices": 11,
          "material": 2,
          "mode": 4
        }
      ]
    }
  ],
  "nodes": [
    {
      "name": "Line1089",
      "mesh": 0
    }
  ],
  "samplers": [
    {
      "magFilter": 9729,
      "minFilter": 9986,
      "wrapS": 10497,
      "wrapT": 10497
    }
  ],
  "scene": 0,
  "scenes": [
    {
      "nodes": [
        0
      ]
    }
  ],
  "textures": [
    {
      "name": "honglvdeng_Black1113_001",
      "sampler": 0,
      "source": 0
    },
    {
      "name": "4",
      "sampler": 0,
      "source": 1
    },
    {
      "name": "honglvdeng1113_002",
      "sampler": 0,
      "source": 2
    }
  ]
}
