{
  "accessors": [
    {
      "name": "Tube202_1_0_positions",
      "componentType": 5126,
      "count": 114,
      "min": [
        -0.06620000302791595,
        0.00930000003427267,
        -0.059700001031160355
      ],
      "max": [
        0.06790000200271606,
        0.1454000025987625,
        0.06499999761581421
      ],
      "type": "VEC3",
      "bufferView": 0,
      "byteOffset": 0
    },
    {
      "name": "Tube202_1_0_normals",
      "componentType": 5126,
      "count": 114,
      "min": [
        -0.9932370185852051,
        -1,
        0
      ],
      "max": [
        0.9932370185852051,
        1,
        0.9999980330467224
      ],
      "type": "VEC3",
      "bufferView": 1,
      "byteOffset": 0
    },
    {
      "name": "Tube202_1_0_texcoords",
      "componentType": 5126,
      "count": 114,
      "min": [
        0.048700001090765,
        0.065700002014637
      ],
      "max": [
        0.3027999997138977,
        0.40450000762939453
      ],
      "type": "VEC2",
      "bufferView": 2,
      "byteOffset": 0
    },
    {
      "name": "Tube202_1_0_indices",
      "componentType": 5123,
      "count": 324,
      "min": [
        0
      ],
      "max": [
        113
      ],
      "type": "SCALAR",
      "bufferView": 3,
      "byteOffset": 0
    },
    {
      "name": "Tube204_1_0_positions",
      "componentType": 5126,
      "count": 114,
      "min": [
        -0.06620000302791595,
        -0.14419999718666077,
        -0.059700001031160355
      ],
      "max": [
        0.06790000200271606,
        -0.00800000037997961,
        0.06499999761581421
      ],
      "type": "VEC3",
      "bufferView": 0,
      "byteOffset": 1368
    },
    {
      "name": "Tube204_1_0_normals",
      "componentType": 5126,
      "count": 114,
      "min": [
        -0.9932370185852051,
        -1,
        0
      ],
      "max": [
        0.9932370185852051,
        1,
        0.9999980330467224
      ],
      "type": "VEC3",
      "bufferView": 1,
      "byteOffset": 1368
    },
    {
      "name": "Tube204_1_0_texcoords",
      "componentType": 5126,
      "count": 114,
      "min": [
        0.048700001090765,
        0.065700002014637
      ],
      "max": [
        0.3027999997138977,
        0.40450000762939453
      ],
      "type": "VEC2",
      "bufferView": 2,
      "byteOffset": 912
    },
    {
      "name": "Tube204_1_0_indices",
      "componentType": 5123,
      "count": 324,
      "min": [
        0
      ],
      "max": [
        113
      ],
      "type": "SCALAR",
      "bufferView": 3,
      "byteOffset": 648
    },
    {
      "name": "Box449_1_0_positions",
      "componentType": 5126,
      "count": 177,
      "min": [
        -0.10320000350475311,
        -0.17299999296665192,
        -0.06729999929666519
      ],
      "max": [
        0.10320000350475311,
        0.1736000031232834,
        -0.057100001722574234
      ],
      "type": "VEC3",
      "bufferView": 0,
      "byteOffset": 2736
    },
    {
      "name": "Box449_1_0_normals",
      "componentType": 5126,
      "count": 177,
      "min": [
        -1,
        -1,
        -1
      ],
      "max": [
        1,
        1,
        1
      ],
      "type": "VEC3",
      "bufferView": 1,
      "byteOffset": 2736
    },
    {
      "name": "Box449_1_0_texcoords",
      "componentType": 5126,
      "count": 177,
      "min": [
        0.3395000100135803,
        0.002300000051036477
      ],
      "max": [
        0.6604999899864197,
        0.995199978351593
      ],
      "type": "VEC2",
      "bufferView": 2,
      "byteOffset": 1824
    },
    {
      "name": "Box449_1_0_indices",
      "componentType": 5123,
      "count": 300,
      "min": [
        0
      ],
      "max": [
        176
      ],
      "type": "SCALAR",
      "bufferView": 3,
      "byteOffset": 1296
    },
    {
      "name": "Box449_1_1_positions",
      "componentType": 5126,
      "count": 8,
      "min": [
        -0.07460000365972519,
        -0.1525000035762787,
        -0.057100001722574234
      ],
      "max": [
        0.0746999979019165,
        0.15440000593662262,
        -0.057100001722574234
      ],
      "type": "VEC3",
      "bufferView": 0,
      "byteOffset": 4860
    },
    {
      "name": "Box449_1_1_normals",
      "componentType": 5126,
      "count": 8,
      "min": [
        0,
        -1,
        0
      ],
      "max": [
        0,
        0,
        1
      ],
      "type": "VEC3",
      "bufferView": 1,
      "byteOffset": 4860
    },
    {
      "name": "Box449_1_1_texcoords",
      "componentType": 5126,
      "count": 8,
      "min": [
        0.6640999913215637,
        0
      ],
      "max": [
        0.9883999824523926,
        1
      ],
      "type": "VEC2",
      "bufferView": 2,
      "byteOffset": 3240
    },
    {
      "name": "Box449_1_1_indices",
      "componentType": 5123,
      "count": 12,
      "min": [
        0
      ],
      "max": [
        7
      ],
      "type": "SCALAR",
      "bufferView": 3,
      "byteOffset": 1896
    }
  ],
  "asset": {
    "generator": "obj2gltf",
    "version": "2.0"
  },
  "buffers": [
    {
      "name": "HLD0614",
      "byteLength": 294732,
      "uri": "data:application/octet-stream;base64,"
    }
  ],
  "bufferViews": [
    {
      "name": "bufferView_0",
      "buffer": 0,
      "byteLength": 4956,
      "byteOffset": 0,
      "byteStride": 12,
      "target": 34962
    },
    {
      "name": "bufferView_1",
      "buffer": 0,
      "byteLength": 4956,
      "byteOffset": 4956,
      "byteStride": 12,
      "target": 34962
    },
    {
      "name": "bufferView_2",
      "buffer": 0,
      "byteLength": 3304,
      "byteOffset": 9912,
      "byteStride": 8,
      "target": 34962
    },
    {
      "name": "bufferView_3",
      "buffer": 0,
      "byteLength": 1920,
      "byteOffset": 13216,
      "target": 34963
    },
    {
      "buffer": 0,
      "byteOffset": 15136,
      "byteLength": 36718
    },
    {
      "buffer": 0,
      "byteOffset": 51854,
      "byteLength": 242875
    }
  ],
  "images": [
    {
      "name": "Honglvdeng006",
      "mimeType": "image/jpeg",
      "bufferView": 4
    },
    {
      "name": "XiangYang_WWH_TT_27",
      "mimeType": "image/jpeg",
      "bufferView": 5
    }
  ],
  "materials": [
    {
      "name": "Material__2143341501",
      "pbrMetallicRoughness": {
        "baseColorTexture": {
          "index": 0
        },
        "baseColorFactor": [
          1,
          1,
          1,
          1
        ],
        "metallicFactor": 0,
        "roughnessFactor": 0.99
      },
      "emissiveFactor": [
        0,
        0,
        0
      ],
      "alphaMode": "OPAQUE",
      "doubleSided": false
    },
    {
      "name": "Material__2143341489",
      "pbrMetallicRoughness": {
        "baseColorTexture": {
          "index": 1
        },
        "baseColorFactor": [
          1,
          1,
          1,
          1
        ],
        "metallicFactor": 0,
        "roughnessFactor": 0.99
      },
      "emissiveFactor": [
        0,
        0,
        0
      ],
      "alphaMode": "OPAQUE",
      "doubleSided": false
    }
  ],
  "meshes": [
    {
      "name": "Tube202_1",
      "primitives": [
        {
          "attributes": {
            "POSITION": 0,
            "NORMAL": 1,
            "TEXCOORD_0": 2
          },
          "indices": 3,
          "material": 0,
          "mode": 4
        }
      ]
    },
    {
      "name": "Tube204_1",
      "primitives": [
        {
          "attributes": {
            "POSITION": 4,
            "NORMAL": 5,
            "TEXCOORD_0": 6
          },
          "indices": 7,
          "material": 0,
          "mode": 4
        }
      ]
    },
    {
      "name": "Box449_1",
      "primitives": [
        {
          "attributes": {
            "POSITION": 8,
            "NORMAL": 9,
            "TEXCOORD_0": 10
          },
          "indices": 11,
          "material": 0,
          "mode": 4
        },
        {
          "attributes": {
            "POSITION": 12,
            "NORMAL": 13,
            "TEXCOORD_0": 14
          },
          "indices": 15,
          "material": 1,
          "mode": 4
        }
      ]
    }
  ],
  "nodes": [
    {
      "name": "Tube202",
      "mesh": 0
    },
    {
      "name": "Tube204",
      "mesh": 1
    },
    {
      "name": "Box449",
      "mesh": 2
    }
  ],
  "samplers": [
    {
      "magFilter": 9729,
      "minFilter": 9986,
      "wrapS": 10497,
      "wrapT": 10497
    }
  ],
  "scene": 0,
  "scenes": [
    {
      "nodes": [
        0,
        1,
        2
      ]
    }
  ],
  "textures": [
    {
      "name": "Honglvdeng006",
      "sampler": 0,
      "source": 0
    },
    {
      "name": "XiangYang_WWH_TT_27",
      "sampler": 0,
      "source": 1
    }
  ]
}
