{
  "accessors": [
    {
      "name": "Line847_1_0_positions",
      "componentType": 5126,
      "count": 62,
      "min": [
        -0.06210000067949295,
        0,
        -3.4328999519348145
      ],
      "max": [
        0.06210000067949295,
        9.445799827575684,
        0.07289999723434448
      ],
      "type": "VEC3",
      "bufferView": 0,
      "byteOffset": 0
    },
    {
      "name": "Line847_1_0_normals",
      "componentType": 5126,
      "count": 62,
      "min": [
        -0.8888505101203918,
        -0.8676270842552185,
        -1
      ],
      "max": [
        0.888841450214386,
        0.9718244075775146,
        1
      ],
      "type": "VEC3",
      "bufferView": 1,
      "byteOffset": 0
    },
    {
      "name": "Line847_1_0_texcoords",
      "componentType": 5126,
      "count": 62,
      "min": [
        0,
        -5.618100166320801
      ],
      "max": [
        1,
        6.618100166320801
      ],
      "type": "VEC2",
      "bufferView": 2,
      "byteOffset": 0
    },
    {
      "name": "Line847_1_0_indices",
      "componentType": 5123,
      "count": 264,
      "min": [
        0
      ],
      "max": [
        61
      ],
      "type": "SCALAR",
      "bufferView": 3,
      "byteOffset": 0
    },
    {
      "name": "Line847_1_1_positions",
      "componentType": 5126,
      "count": 60,
      "min": [
        -0.27709999680519104,
        9.293800354003906,
        -4.29640007019043
      ],
      "max": [
        0.2809000015258789,
        9.777199745178223,
        -3.297100067138672
      ],
      "type": "VEC3",
      "bufferView": 0,
      "byteOffset": 744
    },
    {
      "name": "Line847_1_1_normals",
      "componentType": 5126,
      "count": 60,
      "min": [
        -0.9566370248794556,
        0.17719364166259766,
        -0.6780848503112793
      ],
      "max": [
        0.9566370248794556,
        0.9999983906745911,
        0.9832806587219238
      ],
      "type": "VEC3",
      "bufferView": 1,
      "byteOffset": 744
    },
    {
      "name": "Line847_1_1_texcoords",
      "componentType": 5126,
      "count": 60,
      "min": [
        0.23749999701976776,
        0.011699999682605267
      ],
      "max": [
        0.762499988079071,
        1.0117000341415405
      ],
      "type": "VEC2",
      "bufferView": 2,
      "byteOffset": 496
    },
    {
      "name": "Line847_1_1_indices",
      "componentType": 5123,
      "count": 318,
      "min": [
        0
      ],
      "max": [
        59
      ],
      "type": "SCALAR",
      "bufferView": 3,
      "byteOffset": 528
    },
    {
      "name": "Line847_1_2_positions",
      "componentType": 5126,
      "count": 12,
      "min": [
        -0.27709999680519104,
        9.293800354003906,
        -4.29640007019043
      ],
      "max": [
        0.2809000015258789,
        9.657500267028809,
        -3.297100067138672
      ],
      "type": "VEC3",
      "bufferView": 0,
      "byteOffset": 1464
    },
    {
      "name": "Line847_1_2_normals",
      "componentType": 5126,
      "count": 12,
      "min": [
        0,
        -0.9396999478340149,
        -0.34199997782707214
      ],
      "max": [
        0,
        -0.9396999478340149,
        -0.34199997782707214
      ],
      "type": "VEC3",
      "bufferView": 1,
      "byteOffset": 1464
    },
    {
      "name": "Line847_1_2_texcoords",
      "componentType": 5126,
      "count": 12,
      "min": [
        0.07490000128746033,
        0.023600000888109207
      ],
      "max": [
        0.8960000276565552,
        0.9453999996185303
      ],
      "type": "VEC2",
      "bufferView": 2,
      "byteOffset": 976
    },
    {
      "name": "Line847_1_2_indices",
      "componentType": 5123,
      "count": 30,
      "min": [
        0
      ],
      "max": [
        11
      ],
      "type": "SCALAR",
      "bufferView": 3,
      "byteOffset": 1164
    }
  ],
  "asset": {
    "generator": "obj2gltf",
    "version": "2.0"
  },
  "buffers": [
    {
      "name": "LuDeng0530",
      "byteLength": 116068,
      "uri": "data:application/octet-stream;base64,"
    }
  ],
  "bufferViews": [
    {
      "name": "bufferView_0",
      "buffer": 0,
      "byteLength": 1608,
      "byteOffset": 0,
      "byteStride": 12,
      "target": 34962
    },
    {
      "name": "bufferView_1",
      "buffer": 0,
      "byteLength": 1608,
      "byteOffset": 1608,
      "byteStride": 12,
      "target": 34962
    },
    {
      "name": "bufferView_2",
      "buffer": 0,
      "byteLength": 1072,
      "byteOffset": 3216,
      "byteStride": 8,
      "target": 34962
    },
    {
      "name": "bufferView_3",
      "buffer": 0,
      "byteLength": 1224,
      "byteOffset": 4288,
      "target": 34963
    },
    {
      "buffer": 0,
      "byteOffset": 5512,
      "byteLength": 56283
    },
    {
      "buffer": 0,
      "byteOffset": 61795,
      "byteLength": 18817
    },
    {
      "buffer": 0,
      "byteOffset": 80612,
      "byteLength": 35453
    }
  ],
  "images": [
    {
      "name": "TianfuAirport_Biaozhigan",
      "mimeType": "image/jpeg",
      "bufferView": 4
    },
    {
      "name": "Anting_TestArea_WWH_TT07",
      "mimeType": "image/jpeg",
      "bufferView": 5
    },
    {
      "name": "Anting_TestArea_WWH_TT06",
      "mimeType": "image/jpeg",
      "bufferView": 6
    }
  ],
  "materials": [
    {
      "name": "Material__2143342296",
      "pbrMetallicRoughness": {
        "baseColorTexture": {
          "index": 0
        },
        "baseColorFactor": [
          1,
          1,
          1,
          1
        ],
        "metallicFactor": 0,
        "roughnessFactor": 0.99
      },
      "emissiveFactor": [
        0,
        0,
        0
      ],
      "alphaMode": "OPAQUE",
      "doubleSided": false
    },
    {
      "name": "Material__542",
      "pbrMetallicRoughness": {
        "baseColorTexture": {
          "index": 1
        },
        "baseColorFactor": [
          1,
          1,
          1,
          1
        ],
        "metallicFactor": 0,
        "roughnessFactor": 0.99
      },
      "emissiveFactor": [
        0,
        0,
        0
      ],
      "alphaMode": "OPAQUE",
      "doubleSided": false
    },
    {
      "name": "Material__530",
      "pbrMetallicRoughness": {
        "baseColorTexture": {
          "index": 2
        },
        "baseColorFactor": [
          1,
          1,
          1,
          1
        ],
        "metallicFactor": 0,
        "roughnessFactor": 0.99
      },
      "emissiveFactor": [
        0,
        0,
        0
      ],
      "alphaMode": "OPAQUE",
      "doubleSided": false
    }
  ],
  "meshes": [
    {
      "name": "Line847_1",
      "primitives": [
        {
          "attributes": {
            "POSITION": 0,
            "NORMAL": 1,
            "TEXCOORD_0": 2
          },
          "indices": 3,
          "material": 0,
          "mode": 4
        },
        {
          "attributes": {
            "POSITION": 4,
            "NORMAL": 5,
            "TEXCOORD_0": 6
          },
          "indices": 7,
          "material": 1,
          "mode": 4
        },
        {
          "attributes": {
            "POSITION": 8,
            "NORMAL": 9,
            "TEXCOORD_0": 10
          },
          "indices": 11,
          "material": 2,
          "mode": 4
        }
      ]
    }
  ],
  "nodes": [
    {
      "name": "Line847",
      "mesh": 0
    }
  ],
  "samplers": [
    {
      "magFilter": 9729,
      "minFilter": 9986,
      "wrapS": 10497,
      "wrapT": 10497
    }
  ],
  "scene": 0,
  "scenes": [
    {
      "nodes": [
        0
      ]
    }
  ],
  "textures": [
    {
      "name": "TianfuAirport_Biaozhigan",
      "sampler": 0,
      "source": 0
    },
    {
      "name": "Anting_TestArea_WWH_TT07",
      "sampler": 0,
      "source": 1
    },
    {
      "name": "Anting_TestArea_WWH_TT06",
      "sampler": 0,
      "source": 2
    }
  ]
}
